<svg width="60" height="60" viewBox="0 0 60 60" fill="none" xmlns="http://www.w3.org/2000/svg">
<path d="M30 0C46.5685 0 60 13.4315 60 30C60 46.5685 46.5685 60 30 60C13.4315 60 0 46.5685 0 30C0 13.4315 13.4315 0 30 0ZM11.0781 17C9.76562 17 9.5 17.6172 9.5 18.3047C9.5 19.5234 11.0625 25.5781 16.7734 33.5781C20.5781 39.0391 25.9375 42 30.8125 42C33.7422 42 34.1016 41.3438 34.1016 40.2109C34.1016 34.9922 33.8359 34.5 35.3047 34.5C35.9844 34.5 37.1563 34.8438 39.8906 37.4766C43.0156 40.6016 43.5312 42 45.2812 42H49.8828C51.1953 42 51.8594 41.3438 51.4766 40.0469C50.6016 37.3203 44.6875 31.711 44.4219 31.3359C43.7422 30.4609 43.9375 30.0703 44.4219 29.2891C44.4306 29.28 50.0469 21.3748 50.625 18.6953C50.9141 17.7188 50.625 17 49.2344 17H44.6328C43.4609 17 42.9219 17.6172 42.6328 18.3047C42.6328 18.3047 40.2891 24.0156 36.9766 27.7188C35.9063 28.7891 35.4141 29.1328 34.8281 29.1328C34.5391 29.1328 34.0938 28.7891 34.0938 27.8125V18.6953C34.0938 17.5234 33.7656 17 32.7969 17H25.5625C24.8281 17 24.3906 17.5469 24.3906 18.0547C24.3906 19.1641 26.0469 19.4219 26.2188 22.5469V29.3281C26.2188 30.8125 25.9531 31.0859 25.3672 31.0859C23.8047 31.0859 20.0078 25.3516 17.7578 18.7891C17.3047 17.5156 16.8594 17 15.6797 17H11.0781Z" fill="white"/>
</svg>
