<svg width="60" height="60" viewBox="0 0 60 60" fill="none" xmlns="http://www.w3.org/2000/svg">
<path d="M30 0C46.5685 0 60 13.4315 60 30C60 46.5685 46.5685 60 30 60C13.4315 60 0 46.5685 0 30C0 13.4315 13.4315 0 30 0ZM45.9062 13.0967C45.6728 13.055 45.4321 13.0772 45.21 13.1611C38.2216 15.7876 16.7 23.9869 7.90332 27.292C7.63235 27.3929 7.39938 27.5778 7.2373 27.8203C7.07523 28.0629 6.99213 28.3515 7 28.6445C7.02003 29.2436 7.41666 29.7632 7.98828 29.9375C11.9175 31.1308 17.0701 32.7894 17.1113 32.8027C17.1234 32.8397 19.5345 40.2326 20.793 43.9971C20.9513 44.4709 21.3172 44.8431 21.7988 44.9717C22.0348 45.0339 22.2823 45.0348 22.5186 44.9736C22.7549 44.9124 22.9726 44.7907 23.1504 44.6211L28.3096 39.6748C28.3096 39.6748 34.2629 44.1068 37.6396 46.5488C37.9039 46.7398 38.2106 46.8625 38.5322 46.9053C38.8539 46.9481 39.1815 46.9104 39.4854 46.7949C39.7873 46.6791 40.0559 46.4875 40.2666 46.2393C40.4772 45.991 40.6232 45.6933 40.6914 45.373C42.1397 38.4618 45.6533 20.9689 46.9717 14.6816C47.0205 14.4482 47.0059 14.2053 46.9297 13.9795C46.8534 13.7536 46.7178 13.5525 46.5381 13.3984C46.3575 13.2428 46.1395 13.1384 45.9062 13.0967ZM39.4473 18.9414C39.5631 18.9614 39.6676 19.0244 39.7402 19.1182C39.8124 19.2117 39.847 19.3299 39.8369 19.4482C39.8267 19.5667 39.7717 19.6774 39.6846 19.7568L22.71 35.3018L22.0879 41.2373L19.29 31.8652L39.1133 19.0098C39.2123 18.9457 39.3315 18.9214 39.4473 18.9414Z" fill="white"/>
</svg>
