<svg width="60" height="60" viewBox="0 0 60 60" fill="none" xmlns="http://www.w3.org/2000/svg">
<path d="M30 0C46.5685 0 60 13.4315 60 30C60 46.5685 46.5685 60 30 60C13.4315 60 0 46.5685 0 30C0 13.4315 13.4315 0 30 0ZM36.3086 11.4727C36.2512 11.4621 36.1936 11.4891 36.1641 11.542C35.7763 12.2364 35.3467 13.1425 35.0459 13.8545C31.655 13.3434 28.2813 13.3433 24.96 13.8545C24.6591 13.1266 24.2137 12.2365 23.8242 11.542C23.7947 11.491 23.7379 11.464 23.6807 11.4727C20.5297 12.0191 17.5138 12.9765 14.7002 14.2773C14.676 14.2878 14.6555 14.3055 14.6416 14.3281C8.92212 22.9319 7.35442 31.325 8.12305 39.6133C8.1266 39.6536 8.14954 39.6922 8.18066 39.7168C11.9542 42.5072 15.6098 44.2014 19.1973 45.3242C19.2545 45.3418 19.315 45.3207 19.3516 45.2734C20.2001 44.1066 20.9569 42.8758 21.6055 41.582C21.6437 41.5063 21.6075 41.4157 21.5293 41.3857C20.3294 40.9274 19.1869 40.3689 18.0879 39.7344C18.001 39.6833 17.9942 39.558 18.0742 39.498C18.3053 39.3237 18.5362 39.1421 18.7568 38.959C18.7967 38.9256 18.8525 38.9185 18.8994 38.9395C26.1195 42.2587 33.9364 42.2586 41.0713 38.9395C41.1182 38.9166 41.1741 38.9237 41.2158 38.957C41.4367 39.1404 41.6684 39.3235 41.9014 39.498C41.9813 39.558 41.9756 39.6833 41.8887 39.7344C40.7897 40.3812 39.6469 40.9282 38.4453 41.3848C38.3674 41.4149 38.3329 41.5064 38.3711 41.582C39.0336 42.874 39.7901 44.1046 40.623 45.2715C40.6578 45.3206 40.7201 45.3416 40.7773 45.3242C44.3822 44.2014 48.038 42.5072 51.8115 39.7168C51.8445 39.6921 51.8657 39.6548 51.8691 39.6143C52.7889 30.0323 50.3278 21.7087 45.3457 14.3301C45.3336 14.3057 45.3132 14.2879 45.2891 14.2773C42.4772 12.9782 39.4613 12.0209 36.3086 11.4727ZM22.6836 25.6113C24.9094 25.6113 26.6832 27.6387 26.6484 30.0889C26.6484 32.5567 24.892 34.5664 22.6836 34.5664C20.51 34.5662 18.7188 32.5566 18.7188 30.0889C18.7188 27.6212 20.4753 25.6115 22.6836 25.6113ZM37.3438 25.6113C39.5694 25.6116 41.3433 27.6389 41.3086 30.0889C41.3086 32.5565 39.5694 34.5661 37.3438 34.5664C35.1701 34.5664 33.3789 32.5567 33.3789 30.0889C33.3789 27.6211 35.1353 25.6113 37.3438 25.6113Z" fill="white"/>
</svg>
